<?xml version="1.0" encoding="UTF-8"?>
<svg version="1.1" xmlns="http://www.w3.org/2000/svg" width="1200" height="800">
<path d="M0 0 C396 0 792 0 1200 0 C1200 264 1200 528 1200 800 C804 800 408 800 0 800 C0 536 0 272 0 0 Z " fill="#F0F2F4" transform="translate(0,0)"/>
<path d="M0 0 C396 0 792 0 1200 0 C1200 180.51 1200 361.02 1200 547 C1197.44633026 543.80791282 1195.08960307 540.76536607 1192.8203125 537.40234375 C1192.22822998 536.52835938 1191.63614746 535.654375 1191.02612305 534.75390625 C1190.39875244 533.82449219 1189.77138184 532.89507813 1189.125 531.9375 C1179.050863 517.0885454 1168.77951905 502.37872742 1158.30126953 487.81201172 C1156.88304866 485.8371458 1155.47092147 483.85799036 1154.05859375 481.87890625 C1145.60818049 470.07043404 1136.86085297 458.50283024 1128 447 C1127.38447266 446.19997559 1126.76894531 445.39995117 1126.13476562 444.57568359 C1118.37896703 434.50781855 1110.48030061 424.56853963 1102.42382812 414.73974609 C1101.14773696 413.18051673 1099.87812619 411.615989 1098.609375 410.05078125 C1093.54327169 403.80926908 1088.34594341 397.68970787 1083.09765625 391.6015625 C1081.07255881 389.25217024 1079.0597527 386.8932486 1077.05859375 384.5234375 C1070.26069111 376.49089244 1063.19262632 368.7601772 1055.9675293 361.11108398 C1054.51657966 359.55427029 1053.08002977 357.98400626 1051.65161133 356.40649414 C1044.58247493 348.6014395 1037.24999269 341.09556134 1029.79223633 333.66186523 C1027.80107223 331.67610324 1025.81536779 329.6849926 1023.83007812 327.69335938 C1015.44793246 319.29885772 1015.44793246 319.29885772 1006.62231445 311.37719727 C1004.06707473 309.20803139 1001.64002957 306.90945411 999.1875 304.625 C994.59575319 300.38813583 989.89045886 296.34594117 985.01953125 292.4296875 C982.7933284 290.63835739 980.58511884 288.83261697 978.38671875 287.0078125 C940.28469789 255.48931486 897.50229501 230.16824711 850 216 C849.15840332 215.74895508 848.31680664 215.49791016 847.44970703 215.23925781 C843.0015195 213.94743373 838.54711831 212.89895958 834 212 C833.28392578 211.85481934 832.56785156 211.70963867 831.83007812 211.56005859 C786.47164 202.65104891 742.4077421 214.84452635 704.375 239.875 C687.12725932 251.47708382 671.38953558 265.24520509 656.79272461 280.00146484 C655.04408776 281.7686071 653.2873301 283.52736615 651.52929688 285.28515625 C645.81352072 291.01862955 640.18893129 296.77739842 635 303 C634.27554688 303.86625 633.55109375 304.7325 632.8046875 305.625 C630.06810606 308.9926079 630.06810606 308.9926079 627.33349609 312.36181641 C625.88099006 314.14620225 624.4194113 315.9229175 622.95703125 317.69921875 C613.00725566 329.81525936 603.64223391 342.31187366 594.4375 355 C593.71530273 355.99362549 593.71530273 355.99362549 592.97851562 357.00732422 C582.56131884 371.44934703 572.70531672 386.30117944 562.75 401.0625 C562.1110379 402.00954803 561.47207581 402.95659607 560.81375122 403.93234253 C551.92753251 417.10808592 543.13825123 430.33530177 534.50732422 443.6796875 C530.07640435 450.5004621 525.54477 457.2547515 521 464 C520.41750488 464.8647998 519.83500977 465.72959961 519.23486328 466.62060547 C503.55394728 489.8593847 487.44365398 512.84823609 469 534 C467.95005859 535.21816406 467.95005859 535.21816406 466.87890625 536.4609375 C449.90272171 555.77977133 425.33059715 582.29284243 397.60913086 584.16113281 C394.71846767 584.20703754 391.82849751 584.2352969 388.9375 584.25 C387.95072266 584.270625 386.96394531 584.29125 385.94726562 584.3125 C368.22908548 584.40532609 356.41301683 576.82151597 343.67675781 565.47070312 C341.32261322 563.40585644 338.88380837 561.45419386 336.4375 559.5 C331.7117622 555.66944601 327.27321477 551.59364241 322.83349609 547.44140625 C318.65346747 543.55208693 314.32022426 539.91127426 309.8671875 536.3359375 C306.58421336 533.66125285 303.38739413 530.89788868 300.1875 528.125 C293.8401854 522.6469424 287.32088101 517.42591088 280.68505859 512.30273438 C279.07325659 511.05663535 277.46810175 509.80195255 275.86328125 508.546875 C243.32718147 483.23648371 207.56886905 459.55119636 168 447 C166.26169922 446.43539062 166.26169922 446.43539062 164.48828125 445.859375 C132.05274149 435.57212689 96.06467148 433.19781345 64.90966797 448.96533203 C41.42094572 461.69164306 23.05867657 484.4720963 7.3515625 505.546875 C6.93358398 506.10745605 6.51560547 506.66803711 6.08496094 507.24560547 C4.94413908 508.78189382 3.81163803 510.32435102 2.6796875 511.8671875 C1.84824219 512.92292969 1.84824219 512.92292969 1 514 C0.67 514 0.34 514 0 514 C0 344.38 0 174.76 0 0 Z " fill="#C2CBD2" transform="translate(0,0)"/>
<path d="M0 0 C9.63533365 7.63698836 17.44390512 18.43192697 19.78515625 30.76953125 C21.21881131 45.65347743 19.26516509 59.85943885 10 72 C1.67299346 81.99240784 -9.10034525 88.6563986 -22 91 C-35.9132032 92.17971979 -48.44956322 89.38839777 -59.734375 80.95703125 C-70.53449094 71.71147745 -76.66115196 61.05536297 -79 47 C-80.00256358 32.03149261 -76.58075526 19.09389251 -66.625 7.625 C-48.22026327 -11.51470126 -22.47804452 -14.33893559 0 0 Z " fill="#F0F2F4" transform="translate(377,315)"/>
</svg>
